<svg width="18" height="18" viewBox="0 0 18 18" fill="none" xmlns="http://www.w3.org/2000/svg">
<path d="M16.9917 9.00129C16.992 8.74296 16.9247 8.48905 16.7966 8.26474C16.6685 8.04043 16.4839 7.85353 16.2612 7.72258L3.22791 0.195771C3.00242 0.0667205 2.74697 -0.000790084 2.48717 6.97685e-06C2.22737 0.000804038 1.97234 0.0698807 1.74765 0.200313C1.52295 0.330744 1.3365 0.517949 1.20696 0.743159C1.07743 0.96837 1.00937 1.22367 1.00961 1.48348V16.441C1.00961 16.4665 1.00781 16.4921 1.00781 16.5177C1.0079 16.7777 1.07637 17.0332 1.20637 17.2584C1.33636 17.4836 1.52331 17.6707 1.74844 17.8009C1.97358 17.9311 2.22899 17.9997 2.48904 18C2.7491 18.0003 3.00466 17.9322 3.23007 17.8025V17.8046L16.2936 10.2609C16.5075 10.1276 16.6838 9.94201 16.806 9.7216C16.9281 9.50119 16.992 9.25328 16.9917 9.00129V9.00129Z" fill="white"/>
</svg>
